# xmcd
#
# Track frame offsets: 
#        150
#        15362
#        25945
#        38592
#        55595
#        67227
#        77095
#        89712
#        109975
#        121447
#        138637
#        151060
#        166920
#        184037
#        196637
#        211720
#        224262
#
# Disc length: 3158 seconds
#
# Revision: 7
# Processed by: cddbd v1.5.2PL0 Copyright (c) Steve Scherf et al.
# Submitted via: ExactAudioCopy v1.3
#
DISCID=e00c5411
DTITLE=Albert King - King Of The Blues Guitar
DYEAR=1969
DGENRE=Blues
TTITLE0=Laundromat Blues
TTITLE1=Overall Junction
TTITLE2=Oh, Pretty Woman
TTITLE3=Funk-Shun
TTITLE4=Crosscut Saw
TTITLE5=Down Don't Bother Me
TTITLE6=Born Under A Bad Sign
TTITLE7=Personal Manager
TTITLE8=Kansas City
TTITLE9=The Very Thought Of You
TTITLE10=The Hunter
TTITLE11=I Almost Lost My Mind
TTITLE12=As The Years Go Passing By
TTITLE13=Cold Feet
TTITLE14=You Sure Drive A Hard Bargain
TTITLE15=I Love Lucy
TTITLE16=You're Gonna Need Me
EXTD=
EXTT0=
EXTT1=
EXTT2=
EXTT3=
EXTT4=
EXTT5=
EXTT6=
EXTT7=
EXTT8=
EXTT9=
EXTT10=
EXTT11=
EXTT12=
EXTT13=
EXTT14=
EXTT15=
EXTT16=
PLAYORDER=
